<?xml version="1.0" standalone="no"?>
<!DOCTYPE svg PUBLIC "-//W3C//DTD SVG 20010904//EN"
 "http://www.w3.org/TR/2001/REC-SVG-20010904/DTD/svg10.dtd">
<svg version="1.0" xmlns="http://www.w3.org/2000/svg"
 width="250.000000pt" height="250.000000pt" viewBox="0 0 250.000000 250.000000"
 preserveAspectRatio="xMidYMid meet">
<metadata>
Created by potrace 1.14, written by Peter Selinger 2001-2017
</metadata>
<g transform="translate(0.000000,250.000000) scale(0.100000,-0.100000)"
fill="#000000" stroke="none">
<path d="M1009 1535 c-162 -32 -249 -191 -206 -372 15 -62 85 -143 145 -169
140 -59 296 -18 376 101 23 33 26 48 26 119 l0 81 -148 0 -148 0 0 -57 1 -58
77 0 c45 0 78 -4 78 -10 0 -5 -18 -22 -40 -36 -42 -28 -94 -34 -141 -15 -81
30 -102 179 -35 246 39 40 124 42 165 4 18 -17 34 -20 101 -18 93 2 97 8 51
80 -57 90 -174 131 -302 104z"/>
<path d="M365 1528 c-46 -129 -179 -493 -190 -520 l-15 -38 84 0 84 0 12 38
c7 20 16 41 20 46 10 10 163 14 188 5 10 -4 24 -25 31 -48 l12 -41 84 0 84 0
-9 28 c-5 15 -51 142 -102 282 l-93 255 -93 3 c-68 2 -94 -1 -97 -10z m126
-250 c13 -40 24 -77 24 -82 0 -6 -25 -10 -56 -11 l-56 -1 23 76 c13 41 24 78
24 83 0 4 4 7 9 7 4 0 19 -33 32 -72z"/>
<path d="M1422 1255 l0 -285 79 0 78 0 3 150 3 149 50 -147 51 -147 69 0 69 0
31 95 c18 52 35 102 38 110 3 8 12 35 21 60 10 30 15 37 15 20 -1 -14 -1 -85
0 -157 l1 -133 79 0 78 0 1 285 0 285 -98 0 c-84 0 -98 -2 -103 -17 -6 -21
-84 -229 -97 -258 -4 -11 -14 -37 -22 -58 l-14 -37 -69 182 -70 183 -97 3 -96
3 0 -286z"/>
<path d="M2179 1523 c-1 -20 -1 -483 0 -525 l1 -28 78 0 77 0 0 283 0 282 -78
3 c-68 3 -77 1 -78 -15z"/>
</g>
</svg>
