<svg xmlns="http://www.w3.org/2000/svg" xmlns:xlink="http://www.w3.org/1999/xlink" version="1.1" x="0px" y="0px" viewBox="0 0 1024 1280" style="enable-background:new 0 0 1024 1024;" xml:space="preserve"><g><path d="M890.6,710.5h-1.1v-74.7c0-26.5-12.7-51.7-33.9-67.5l-31.5-23.4c-0.8-0.6-1.5-1.3-2.2-2.1l-7.1,3l-7,3l-18.4,7.8   c-35.4,14.7-61.6,44.3-72,81.1L699.1,703l-2.1,7.5l-1.8,6.5l0.1,1H328.8l0-0.4l-0.7,0.2l-2.1-7.3l-2.1-7.5l-18.4-65.3   c-10.4-36.8-36.6-66.4-71.9-81.1l-17.6-7.5l-7-3l-7.1-3c-0.6,0.7-1.2,1.3-1.9,1.8l-31.5,23.4c-21.3,15.8-33.9,41-33.9,67.5v74.7   h-1.1c-9.1,0-16.4,7.4-16.4,16.4V776c0,9.1,7.4,16.4,16.4,16.4h9.3v17.5c0,14.8,12,26.8,26.8,26.8h20.7l0.5,53.5   c0,13.1,10.6,23.7,23.6,23.7h72.4c13.1,0,23.7-10.6,23.7-23.7l-0.5-53.5h405.6l0.5,53.5c0,13.1,10.6,23.7,23.7,23.7H812   c13.1,0,23.7-10.6,23.7-23.7l-0.5-53.5h20.7c14.8,0,26.8-12,26.8-26.8v-17.5h7.9c9.1,0,16.4-7.4,16.4-16.4v-49.1   C907,717.8,899.6,710.5,890.6,710.5z M196.1,687c-11.6,0-21-9.4-21-21v-23.8c0-5,4.1-9.1,9.1-9.1h26.9c21.3,0,39.7,12.3,48.5,30.2   c3.6,7.2,5.6,15.3,5.6,23.9H196.1z M848.9,665.9c0,11.6-9.4,21-21,21h-69c0-8.6,2-16.7,5.5-23.9c8.8-17.9,27.2-30.2,48.5-30.2h26.9   c5,0,9.1,4.1,9.1,9.1V665.9z"/><path d="M746.2,406.6l-88.3,90.7c-5.2-2.8-11.1-4.4-17.4-4.4h-257c-6.3,0-12.2,1.6-17.4,4.4l-88.3-90.7H746.2z"/><path d="M914.5,245.6H902v-23.4c0-23.8-19.3-43.1-43.1-43.1h-39.4v-9.2c0-38.8-31.5-70.3-70.3-70.3H274.8   c-38.8,0-70.3,31.5-70.3,70.3v9.2h-39.4c-23.8,0-43.1,19.4-43.1,43.1v23.4h-12.5c-5.8,0-10.5,4.7-10.5,10.5v113   c0,5.8,4.7,10.5,10.5,10.5h45c5.8,0,10.5-4.7,10.5-10.5v-113c0-5.8-4.7-10.5-10.5-10.5H142v-23.4c0-12.8,10.4-23.1,23.1-23.1h39.4   v323.4l15,6.4l21.8,9.2c41,17,71.4,51.3,83.4,94.1l9.1,32.4L347,526.1c0.5-5.4,2.2-10.4,4.7-14.8L241.4,397.9   c-1.3-1.1-2.4-2.4-3.5-3.7c-6.4-7.9-9-18.1-7-28l31.5-157.5c3.1-15.7,17.1-27.1,33.1-27.1h432.9c16,0,30,11.4,33.1,27.1l31.5,157.5   c2,10-0.6,20.2-7,28c-1.1,1.3-2.3,2.5-3.5,3.7L672.3,511.3c2.5,4.4,4.2,9.4,4.7,14.8l12.9,135.7l8.3-29.6   c12-42.8,42.5-77.1,83.5-94.1l22.7-9.6l7.5-3.2l7.5-3.2v-323h39.4c12.8,0,23.1,10.4,23.1,23.1v23.4h-12.5   c-5.8,0-10.5,4.7-10.5,10.5v113c0,5.8,4.7,10.5,10.5,10.5h45c5.8,0,10.5-4.7,10.5-10.5v-113C925,250.3,920.3,245.6,914.5,245.6z    M323.7,151.9h-27.4v-20h27.4V151.9z M380.2,151.9h-27.4v-20h27.4V151.9z M671.2,151.9h-27.4v-20h27.4L671.2,151.9L671.2,151.9z    M727.7,151.9h-27.4v-20h27.4L727.7,151.9L727.7,151.9z"/><rect x="426.2" y="273.9" transform="matrix(0.6951 -0.7189 0.7189 0.6951 -50.4379 448.9408)" width="155.7" height="20"/><rect x="499.3" y="314.2" transform="matrix(0.6951 -0.719 0.719 0.6951 -67.3929 489.5632)" width="88.3" height="20"/><rect x="425.5" y="561" width="172.9" height="20"/><rect x="420.5" y="630" width="182.9" height="20"/></g><text x="0" y="1039" fill="#000000" font-size="5px" font-weight="bold" font-family="'Helvetica Neue', Helvetica, Arial-Unicode, Arial, Sans-serif">Created by IconPai</text><text x="0" y="1044" fill="#000000" font-size="5px" font-weight="bold" font-family="'Helvetica Neue', Helvetica, Arial-Unicode, Arial, Sans-serif">from the Noun Project</text></svg>